# xmcd
#
# Track frame offsets:
#	150
#	8400
#	17212
#	24437
#	31270
#	38825
#	45447
#	54070
#	63215
#	70835
#	75982
#	81500
#	88215
#	104017
#	113265
#	121727
#	127455
#	137155
#
# Disc length: 1873 seconds
#
# Revision: 1
# Processed by: cddbd v1.4PL0 Copyright (c) Steve Scherf et al.
# Submitted via: EasyCDDAExtractor 5.0.6
#
DISCID=dc074f12
DTITLE=Gene Autry - Love Songs
DYEAR=1900
DGENRE=Country
TTITLE0=Ridin' Double
TTITLE1=We Never Dream The Same Dream Twice
TTITLE2=The Girl In The Middle Of My Heart
TTITLE3=I'm Mad About You
TTITLE4=You're The Only Star In My Blue Heaven
TTITLE5=You Belong To My Heart
TTITLE6=Forgive Me
TTITLE7=Let Me Call You Sweetheart
TTITLE8=You Stole My Heart
TTITLE9=The One Rose (That's Left In My heart)
TTITLE10=I'm beginning To care
TTITLE11=I Just Want You
TTITLE12=Someday (You'll Want Me To Want You)
TTITLE13=I'll Wait For You
TTITLE14=You're The Moment Of A Lifetime
TTITLE15=Girl Of My Dreams
TTITLE16=Rocky Mountain Rose
TTITLE17=I'd Love To Wed (On The Prarie)
EXTD=
EXTT0=
EXTT1=
EXTT2=
EXTT3=
EXTT4=
EXTT5=
EXTT6=
EXTT7=
EXTT8=
EXTT9=
EXTT10=
EXTT11=
EXTT12=
EXTT13=
EXTT14=
EXTT15=
EXTT16=
EXTT17=
PLAYORDER=
